<svg viewBox="0 0 512 512" xml:space="preserve" xmlns="http://www.w3.org/2000/svg" enable-background="new 0 0 512 512"><path d="M256 234.635c-8.973 0-16.273-7.3-16.273-16.273V173.27c0-8.973 7.3-16.273 16.273-16.273 8.974 0 16.273 7.3 16.273 16.273v45.092c0 8.973-7.299 16.273-16.273 16.273zm0-67.637a6.28 6.28 0 0 0-6.273 6.273v45.092c0 3.459 2.814 6.273 6.273 6.273s6.273-2.814 6.273-6.273v-45.092a6.28 6.28 0 0 0-6.273-6.273zM256 274.091c-8.973 0-16.273-7.3-16.273-16.273 0-8.973 7.3-16.273 16.273-16.273 8.974 0 16.273 7.3 16.273 16.273 0 8.973-7.299 16.273-16.273 16.273zm0-22.547c-3.459 0-6.273 2.814-6.273 6.273s2.814 6.273 6.273 6.273 6.273-2.814 6.273-6.273-2.814-6.273-6.273-6.273z" fill="#00d3e6" class="fill-000000"></path><path d="M325.676 291H186.325c-8.624 0-16.346-4.459-20.658-11.927-4.312-7.469-4.312-16.386 0-23.854l69.675-120.681c4.312-7.468 12.035-11.927 20.658-11.927 8.624 0 16.347 4.459 20.658 11.927l69.675 120.681c4.313 7.468 4.313 16.386.001 23.854C342.022 286.541 334.3 291 325.676 291zm-155.679-33.281 4.33 2.5c-2.504 4.338-2.504 9.517 0 13.854s6.99 6.927 11.998 6.927h139.351c5.009 0 9.493-2.59 11.998-6.927 2.504-4.338 2.504-9.517-.001-13.854l-69.675-120.681c-2.504-4.337-6.989-6.927-11.998-6.927-5.008 0-9.494 2.59-11.998 6.927l-69.675 120.681-4.33-2.5zM450 426H62c-17.093 0-31-13.906-31-31v-18c0-17.094 13.907-31 31-31h144a5 5 0 0 1 5 5v15h90v-15a5 5 0 0 1 5-5h144c17.094 0 31 13.906 31 31v18c0 17.094-13.906 31-31 31zM62 356c-11.58 0-21 9.421-21 21v18c0 11.579 9.42 21 21 21h388c11.579 0 21-9.421 21-21v-18c0-11.579-9.421-21-21-21H311v15a5 5 0 0 1-5 5H206a5 5 0 0 1-5-5v-15H62z" fill="#00d3e6" class="fill-000000"></path><path d="M446.477 356a5 5 0 0 1-5-5V133.738c0-20.809-16.93-37.738-37.738-37.738H108.262c-20.809 0-37.738 16.929-37.738 37.738V351a5 5 0 1 1-10 0V133.738C60.524 107.416 81.939 86 108.262 86h295.477c26.323 0 47.738 21.416 47.738 47.738V351a5 5 0 0 1-5 5z" fill="#00d3e6" class="fill-000000"></path><path d="M445.091 326H66.909a5 5 0 1 1 0-10h378.182c2.762 0 5 2.238 5 5s-2.238 5-5 5z" fill="#00d3e6" class="fill-000000"></path></svg>