<?xml version="1.0" encoding="UTF-8"?>
<svg version="1.1" xmlns="http://www.w3.org/2000/svg" width="512" height="512">
<path d="M0 0 C5.7811045 3.49352767 10.64507762 8.99872264 12.5625 15.5 C12.37173851 17.55614001 12.17612225 19.61243898 11.921875 21.66169739 C11.43931279 26.43589017 10.97370985 31.26252825 13.86621094 35.33599854 C15.67275867 37.09807479 17.53561624 38.60983359 19.5625 40.11328125 C20.2730957 40.64368011 20.98369141 41.17407898 21.71582031 41.72055054 C23.22324781 42.83389189 24.73241231 43.94488464 26.24316406 45.05371094 C36.04156295 52.48399152 44.12992779 60.36139438 46.078125 72.92333984 C46.99197182 81.26152161 46.8901089 89.63090232 46.5625 98 C46.53510742 98.70323521 46.50771484 99.40647041 46.47949219 100.13101578 C46.11054065 108.94630637 45.43815665 117.71985809 44.5625 126.5 C49.8425 126.5 55.1225 126.5 60.5625 126.5 C60.5625 118.58 60.5625 110.66 60.5625 102.5 C65.8425 102.5 71.1225 102.5 76.5625 102.5 C76.5625 110.42 76.5625 118.34 76.5625 126.5 C81.8425 126.5 87.1225 126.5 92.5625 126.5 C92.5625 107.69 92.5625 88.88 92.5625 69.5 C90.9125 68.84 89.2625 68.18 87.5625 67.5 C82.44111193 63.94504381 77.72061695 59.86402132 76.5625 53.5 C75.81512075 45.57210367 75.41849434 37.98086589 80.5625 31.5 C85.59726311 25.76918669 90.98724728 22.6192053 98.5625 21.5 C104.82936318 21.26096542 110.44440897 22.85908158 115.5625 26.5 C120.62509854 31.26362618 124.17097718 35.68948142 124.8984375 42.76953125 C124.99269688 51.31885727 124.66751554 57.19309845 118.65625 63.5 C115.22017077 66.67965541 113.19525636 68.34181091 108.5625 69.5 C108.5625 88.31 108.5625 107.12 108.5625 126.5 C113.8425 126.5 119.1225 126.5 124.5625 126.5 C124.5625 118.58 124.5625 110.66 124.5625 102.5 C129.8425 102.5 135.1225 102.5 140.5625 102.5 C140.5625 110.42 140.5625 118.34 140.5625 126.5 C145.8425 126.5 151.1225 126.5 156.5625 126.5 C156.14484375 123.78946411 156.14484375 123.78946411 155.71875 121.02416992 C153.5578889 100.70973808 153.5578889 100.70973808 159.74047852 92.46699715 C165.39710607 85.74922145 172.1466995 79.9912136 178.81347656 74.3069458 C183.98808141 69.88552621 189.06778315 65.36174692 194.0625 60.73828125 C194.58734985 60.25591129 195.11219971 59.77354134 195.6529541 59.27655411 C202.61166075 52.91001381 202.61166075 52.91001381 205.921875 44.32177734 C206.02326277 41.21467102 205.64720378 38.43269879 205.015625 35.39916992 C204.43304496 30.38603098 205.8450093 27.62508064 208.5625 23.5 C210.52734375 21.2578125 210.52734375 21.2578125 212.5 19.625 C213.14839844 19.07070313 213.79679687 18.51640625 214.46484375 17.9453125 C220.96607557 13.46587903 227.93390917 13.82536272 235.5625 14.5 C242.22209333 16.18085583 246.74797447 20.96378322 250.5625 26.5 C253.79951739 32.93087454 253.68639015 41.04711876 251.9453125 47.9453125 C249.27582358 53.96938041 244.14972672 58.54876483 238.42333984 61.66357422 C235.24850243 62.59180369 233.10715581 62.16338382 229.89646912 61.61639404 C222.69311053 60.67469514 217.80825069 61.87111684 211.98779297 66.29492188 C206.86337451 70.65358381 202.11916272 75.35438142 197.46069336 80.20019531 C195.00814709 82.74961548 192.48098516 85.20593538 189.92287254 87.64879608 C177.27214759 99.42063735 177.27214759 99.42063735 171.78334045 115.24249268 C171.74168638 119.07846785 172.01024951 122.70226799 172.5625 126.5 C173.17774536 126.4927037 173.79299072 126.48540741 174.42687988 126.47789001 C175.23540405 126.47221512 176.04392822 126.46654022 176.87695312 126.46069336 C177.67782349 126.45339706 178.47869385 126.44610077 179.30383301 126.43858337 C188.97206251 126.70147739 197.12621597 132.85288267 203.53515625 139.56640625 C210.45534279 147.77953635 212.88957753 155.92885438 212.5625 166.5 C224.36610302 167.68189523 236.81264414 168.82366125 246.875 161.61328125 C253.41411102 155.97525564 260.48764906 149.3953925 261.640625 140.44921875 C261.73202364 137.37140077 261.39788018 134.54213243 260.875 131.515625 C260.14561482 126.71885169 261.91427779 123.42541817 264.5625 119.5 C266.52734375 117.2578125 266.52734375 117.2578125 268.5 115.625 C269.14839844 115.07070312 269.79679687 114.51640625 270.46484375 113.9453125 C276.96607557 109.46587903 283.93390917 109.82536272 291.5625 110.5 C298.22209333 112.18085583 302.74797447 116.96378322 306.5625 122.5 C309.79951739 128.93087454 309.68639015 137.04711876 307.9453125 143.9453125 C305.23365875 150.06453113 300.04205951 154.5322491 294.296875 157.78125 C291.18696945 158.59871089 289.05462414 158.06007122 285.94799805 157.45703125 C281.46332169 156.77957264 277.80567049 156.73824309 273.5625 158.5 C270.09550511 161.64147387 267.17077008 165.1952839 264.18374634 168.78265381 C252.53086162 182.74051836 252.53086162 182.74051836 242.36408997 183.93041992 C232.38285913 184.56640856 222.47307478 183.65338586 212.5625 182.5 C212.5625 187.78 212.5625 193.06 212.5625 198.5 C220.4825 198.5 228.4025 198.5 236.5625 198.5 C236.5625 203.78 236.5625 209.06 236.5625 214.5 C228.6425 214.5 220.7225 214.5 212.5625 214.5 C212.5625 219.78 212.5625 225.06 212.5625 230.5 C242.03362339 232.56697924 261.85323056 226.17580327 287.26660156 211.32006836 C290.5625 209.5 290.5625 209.5 292.5625 209.5 C292.51609375 208.8709375 292.4696875 208.241875 292.421875 207.59375 C292.15541919 201.27494076 292.73556749 196.64876992 296.5625 191.5 C301.33990313 186.44333322 305.74261899 182.89248479 312.83203125 182.1640625 C321.34826573 182.07016796 327.23845494 182.3822712 333.52734375 188.37109375 C339.9091668 195.27494731 341.04292252 200.70167929 340.8671875 210.0546875 C340.17189797 217.91680755 336.51495981 222.04958704 330.66015625 227.0546875 C324.18565711 231.51570181 317.16530786 231.22938902 309.5625 230.5 C306.50485025 229.47924381 304.32784456 228.22181831 301.5625 226.5 C300.5725 226.17 299.5825 225.84 298.5625 225.5 C295.83219838 226.91612838 293.25157311 228.40036757 290.62890625 229.99609375 C264.02505162 245.39094897 243.07543569 249.51506857 212.5625 246.5 C212.5625 251.78 212.5625 257.06 212.5625 262.5 C225.7625 262.5 238.9625 262.5 252.5625 262.5 C252.5625 267.78 252.5625 273.06 252.5625 278.5 C239.3625 278.5 226.1625 278.5 212.5625 278.5 C212.5625 283.78 212.5625 289.06 212.5625 294.5 C215.9356543 294.37431641 215.9356543 294.37431641 219.37695312 294.24609375 C226.86744007 293.9791223 234.35815694 293.80353237 241.85216522 293.67100525 C246.38987432 293.58802521 250.92265067 293.47585045 255.45751953 293.29296875 C287.41789162 292.03639222 287.41789162 292.03639222 295.26757812 298.10644531 C298.11596893 300.83252587 300.31537718 303.70941429 302.5234375 306.96191406 C304.23875424 309.38534341 305.01786275 310.33964394 307.89318848 311.18621826 C311.83154311 311.53472589 315.5034749 311.24088542 319.40625 310.671875 C324.24867663 310.13969652 327.59771491 311.83178256 331.5625 314.5 C333.8046875 316.46484375 333.8046875 316.46484375 335.4375 318.4375 C335.99179687 319.08589844 336.54609375 319.73429687 337.1171875 320.40234375 C341.59662097 326.90357557 341.23713728 333.87140917 340.5625 341.5 C338.88164417 348.15959333 334.09871678 352.68547447 328.5625 356.5 C322.13162546 359.73701739 314.01538124 359.62389015 307.1171875 357.8828125 C301.03484216 355.18749868 296.52169801 350.02159643 293.328125 344.28125 C292.59815384 341.62951802 292.55320815 340.17499055 292.7890625 337.49609375 C292.84964844 336.75423828 292.91023438 336.01238281 292.97265625 335.24804688 C293.11375166 333.73062987 293.29495183 332.21630862 293.51953125 330.70898438 C293.83881806 325.68237445 292.33674157 322.66143422 289.01657486 318.86841202 C283.44620297 313.04204098 279.34042204 310.23147766 270.92308235 309.98672962 C268.7848516 309.98800617 266.65288319 310.04742127 264.515625 310.109375 C263.00818985 310.10931852 261.50074654 310.10395254 259.99334717 310.09356689 C256.06596529 310.08050428 252.14288668 310.13850386 248.21630859 310.21246338 C244.1937769 310.27527714 240.17137334 310.26931941 236.1484375 310.26953125 C228.28500774 310.27989005 220.42478255 310.36548556 212.5625 310.5 C212.5697963 311.11524536 212.57709259 311.73049072 212.58460999 312.36437988 C212.59028488 313.17290405 212.59595978 313.98142822 212.60180664 314.81445312 C212.60910294 315.61532349 212.61639923 316.41619385 212.62391663 317.24133301 C212.36102261 326.90956251 206.20961733 335.06371597 199.49609375 341.47265625 C191.03741718 348.59973436 183.58200648 350.5 172.5625 350.5 C172.5625 366.34 172.5625 382.18 172.5625 398.5 C186.0925 398.5 199.6225 398.5 213.5625 398.5 C214.2225 396.52 214.8825 394.54 215.5625 392.5 C219.04383562 387.76942521 223.69679656 383.66070457 229.5625 382.5 C237.48633252 381.74354821 245.08581123 381.35930981 251.5625 386.5 C257.29331331 391.53476311 260.4432947 396.92474728 261.5625 404.5 C261.80153458 410.76686318 260.20341842 416.38190897 256.5625 421.5 C251.79887382 426.56259854 247.37301858 430.10847718 240.29296875 430.8359375 C231.74364273 430.93019688 225.86940155 430.60501554 219.5625 424.59375 C216.38284459 421.15767077 214.72068909 419.13275636 213.5625 414.5 C194.7525 414.5 175.9425 414.5 156.5625 414.5 C156.5625 393.38 156.5625 372.26 156.5625 350.5 C151.2825 350.5 146.0025 350.5 140.5625 350.5 C140.5625 358.42 140.5625 366.34 140.5625 374.5 C135.2825 374.5 130.0025 374.5 124.5625 374.5 C124.5625 366.58 124.5625 358.66 124.5625 350.5 C119.2825 350.5 114.0025 350.5 108.5625 350.5 C108.21637319 357.96814957 107.96320206 365.42903812 107.86559582 372.90437603 C107.81668226 376.37827867 107.72996968 379.84193877 107.55102539 383.31176758 C106.26497674 398.47597363 106.26497674 398.47597363 111.55987549 411.98278809 C116.47966053 416.14614173 121.94818477 418.77352461 127.85476685 421.25445557 C132.26721986 423.28416307 136.12173892 426.06088727 140.0625 428.875 C144.69593767 432.36732205 144.69593767 432.36732205 150.21875 433.4140625 C151.80044178 432.79720271 153.36975086 432.14774508 154.92578125 431.46875 C161.21884065 429.15663336 169.23960771 429.35911139 175.5546875 431.52734375 C182.48142984 435.32757777 187.06680624 441.01291872 189.5625 448.5 C190.12549333 455.80808649 189.90842763 461.92352156 186.5625 468.5 C184.1875 471.25 184.1875 471.25 181.5625 473.5 C180.758125 474.221875 179.95375 474.94375 179.125 475.6875 C172.87718216 480.10668823 165.99665089 480.40705992 158.5625 479.5 C151.96860975 477.37499802 147.41351281 474.21817054 143.5625 468.5 C142.69625 467.2315625 142.69625 467.2315625 141.8125 465.9375 C140.5625 462.5 140.5625 462.5 140.63916016 459.60400391 C140.8262751 452.75880035 140.8262751 452.75880035 137.35351562 447.1340332 C134.22178346 445.000028 131.04341455 443.19799893 127.6875 441.4375 C126.50377215 440.77300232 125.32278909 440.10359264 124.14453125 439.42944336 C121.76960587 438.07525832 119.38445144 436.7427767 116.98925781 435.42480469 C112.05905864 432.65551926 107.31225598 429.6276896 102.5625 426.5625 C101.04275655 425.59334091 99.52202794 424.62572367 98 423.66015625 C97.37996094 423.26449463 96.75992188 422.86883301 96.12109375 422.46118164 C94.51826246 421.44086367 94.51826246 421.44086367 92.5625 420.5 C92.5625 397.4 92.5625 374.3 92.5625 350.5 C87.2825 350.5 82.0025 350.5 76.5625 350.5 C76.5625 366.34 76.5625 382.18 76.5625 398.5 C71.2825 398.5 66.0025 398.5 60.5625 398.5 C60.5625 382.66 60.5625 366.82 60.5625 350.5 C55.2825 350.5 50.0025 350.5 44.5625 350.5 C44.73007813 352.18029297 44.89765625 353.86058594 45.0703125 355.59179688 C45.78077227 363.38654648 46.25790315 371.18024588 46.5625 379 C46.58989258 379.69977085 46.61728516 380.3995417 46.64550781 381.12051773 C47.66481411 410.59540505 47.66481411 410.59540505 37.4375 422.04296875 C33.28172783 426.37955903 28.78135783 430.08336486 23.9453125 433.6328125 C22.48156319 434.71365028 21.02052858 435.79817613 19.5625 436.88671875 C18.8710791 437.40068207 18.1796582 437.91464539 17.46728516 438.44418335 C13.93397821 441.35968938 12.17002763 443.39184416 11.703125 448.03759766 C11.65734014 451.16934953 11.97318473 454.15070844 12.390625 457.24926758 C12.93061585 462.10496898 11.19084169 465.49892049 8.5625 469.5 C6.59765625 471.7421875 6.59765625 471.7421875 4.625 473.375 C3.97660156 473.92929687 3.32820312 474.48359375 2.66015625 475.0546875 C-3.84107557 479.53412097 -10.80890917 479.17463728 -18.4375 478.5 C-25.09709333 476.81914417 -29.62297447 472.03621678 -33.4375 466.5 C-36.67451739 460.06912546 -36.56139015 451.95288124 -34.8203125 445.0546875 C-32.16562474 439.06402044 -27.05706363 434.43093701 -21.32958984 431.37548828 C-18.16540179 430.41763091 -15.62891215 430.58687982 -12.36326599 430.87432861 C-3.62433558 431.53082097 2.33734452 430.22447752 9.24453735 424.7489624 C11.10144815 423.13928263 12.86740996 421.46734263 14.625 419.75 C15.24137329 419.17084839 15.85774658 418.59169678 16.49279785 417.99499512 C27.29334626 407.42365859 29.46193981 396.73170021 29.84936523 381.93261719 C29.87856975 371.43077893 29.44411763 360.96388921 28.5625 350.5 C27.94725464 350.5072963 27.33200928 350.51459259 26.69812012 350.52210999 C25.88959595 350.52778488 25.08107178 350.53345978 24.24804688 350.53930664 C23.44717651 350.54660294 22.64630615 350.55389923 21.82116699 350.56141663 C12.15293749 350.29852261 3.99878403 344.14711733 -2.41015625 337.43359375 C-9.33034279 329.22046365 -11.76457753 321.07114562 -11.4375 310.5 C-22.55441387 308.54454111 -35.90448679 306.43492278 -46.4375 311.5 C-52.73218273 316.37235361 -57.02703526 323.12786059 -61.1875 329.8125 C-61.72768768 330.67861908 -62.26787537 331.54473816 -62.82443237 332.43710327 C-65.26973523 336.44825094 -67.61911823 340.51006006 -69.81152344 344.6652832 C-70.32268707 345.63338676 -70.32268707 345.63338676 -70.84417725 346.62104797 C-71.59175773 348.98850792 -71.27172923 350.18559093 -70.4375 352.5 C-69.921875 353.44875 -69.40625 354.3975 -68.875 355.375 C-66.0739499 361.85504128 -66.34913237 369.73606194 -68.28125 376.41796875 C-71.49505294 383.59473815 -76.32856957 387.53485936 -83.3125 390.875 C-91.63163556 392.53882711 -99.05134562 391.91186402 -106.4375 387.5 C-112.3015404 382.51777019 -115.76210698 376.70896867 -116.75 369.08984375 C-117.12557783 361.49612954 -114.59865412 356.15733774 -110.8125 349.75 C-106.93294719 346.07463418 -101.72710973 342.48340412 -96.20838928 342.51124573 C-92.28450833 342.52764047 -89.48767434 342.41274982 -86.45031738 339.77285767 C-84.5379178 337.30971111 -82.8682658 334.78564758 -81.22265625 332.13671875 C-80.28902504 330.72142632 -80.28902504 330.72142632 -79.33653259 329.27754211 C-77.35989233 326.26652495 -75.42982848 323.22868251 -73.5 320.1875 C-72.17684253 318.15233389 -70.85070013 316.1191051 -69.52148438 314.08789062 C-66.59677408 309.61185864 -63.70173418 305.11815384 -60.83192444 300.60673523 C-60.14168434 299.56390129 -60.14168434 299.56390129 -59.4375 298.5 C-58.97606598 297.75891495 -58.51463196 297.0178299 -58.03921509 296.25428772 C-56.4375 294.5 -56.4375 294.5 -54.36836243 294.01898193 C-53.5756041 294.02786438 -52.78284576 294.03674683 -51.96606445 294.04589844 C-51.06535721 294.04620056 -50.16464996 294.04650269 -49.23664856 294.04681396 C-48.26781235 294.06745911 -47.29897614 294.08810425 -46.30078125 294.109375 C-45.30620407 294.11503479 -44.31162689 294.12069458 -43.28691101 294.12652588 C-40.10745289 294.1489328 -36.929118 294.19913795 -33.75 294.25 C-31.59571939 294.27005938 -29.44142113 294.28831113 -27.28710938 294.3046875 C-22.00347286 294.34881189 -16.72067692 294.4178699 -11.4375 294.5 C-11.4375 289.22 -11.4375 283.94 -11.4375 278.5 C-35.1975 278.5 -58.9575 278.5 -83.4375 278.5 C-83.4375 273.22 -83.4375 267.94 -83.4375 262.5 C-59.6775 262.5 -35.9175 262.5 -11.4375 262.5 C-11.4375 257.22 -11.4375 251.94 -11.4375 246.5 C-19.3575 246.5 -27.2775 246.5 -35.4375 246.5 C-35.4375 241.22 -35.4375 235.94 -35.4375 230.5 C-27.5175 230.5 -19.5975 230.5 -11.4375 230.5 C-11.4375 225.22 -11.4375 219.94 -11.4375 214.5 C-17.66414149 214.42001425 -23.88718855 214.39975903 -30.11425781 214.43286133 C-32.2285535 214.43592786 -34.34293749 214.42317948 -36.45703125 214.39379883 C-50.50624009 213.714317 -50.50624009 213.714317 -62.55078125 219.79296875 C-63.88470646 221.32950589 -65.18707066 222.89478059 -66.4375 224.5 C-68.19308209 225.97665783 -69.96037711 227.43978688 -71.75 228.875 C-74.85430006 231.38061362 -77.93012947 233.9089492 -80.953125 236.51171875 C-81.54311279 237.01848145 -82.13310059 237.52524414 -82.7409668 238.04736328 C-83.89692542 239.04304395 -85.04954769 240.04261368 -86.19848633 241.04638672 C-90.2165731 244.5 -90.2165731 244.5 -92.4375 244.5 C-92.1075 245.49 -91.7775 246.48 -91.4375 247.5 C-90.82509928 255.40097319 -90.26402286 263.05837248 -95.4375 269.5 C-100.24198639 274.54521222 -104.59927055 278.10562995 -111.70703125 278.8359375 C-120.22326573 278.92983204 -126.11345494 278.6177288 -132.40234375 272.62890625 C-138.7841668 265.72505269 -139.91792252 260.29832071 -139.7421875 250.9453125 C-139.04689797 243.08319245 -135.38995981 238.95041296 -129.53515625 233.9453125 C-124.87733354 230.73601194 -121.05078922 230.24596317 -115.4375 230.3125 C-114.24125 230.31894531 -113.045 230.32539063 -111.8125 230.33203125 C-108.4375 230.5 -108.4375 230.5 -105.9453125 231.37890625 C-102.2966945 231.55508562 -100.86262108 229.79721567 -98.22412109 227.42333984 C-97.59328613 226.8298877 -96.96245117 226.23643555 -96.3125 225.625 C-94.96984448 224.41024751 -93.6260883 223.19671051 -92.28125 221.984375 C-91.62511719 221.38560547 -90.96898437 220.78683594 -90.29296875 220.16992188 C-87.07143584 217.27054225 -83.70419033 214.56609223 -80.27954102 211.91186523 C-77.37161984 209.57259701 -77.37161984 209.57259701 -75.02905273 206.69067383 C-68.92024592 200.13123081 -64.09045178 197.87026883 -55.06427002 197.4552002 C-49.07501024 197.40471449 -43.10909603 197.58153489 -37.125 197.8125 C-34.6309677 197.86775729 -32.13681735 197.91793318 -29.64257812 197.96289062 C-23.57127259 198.08329631 -17.50570299 198.27263716 -11.4375 198.5 C-11.4375 193.22 -11.4375 187.94 -11.4375 182.5 C-15.02625 182.91765625 -15.02625 182.91765625 -18.6875 183.34375 C-44.47486948 185.65813735 -44.47486948 185.65813735 -52.25537109 180.14453125 C-56.87377539 176.28065567 -60.63687195 171.68963687 -64.47851562 167.08105469 C-69.84488679 160.22797526 -69.84488679 160.22797526 -77.61328125 157.046875 C-80.71360921 156.99799802 -83.53546836 157.42117778 -86.5625 158.046875 C-91.60377555 158.636379 -94.31674879 157.28675312 -98.4375 154.5 C-100.6796875 152.53515625 -100.6796875 152.53515625 -102.3125 150.5625 C-102.86679688 149.91410156 -103.42109375 149.26570312 -103.9921875 148.59765625 C-108.47162097 142.09642443 -108.11213728 135.12859083 -107.4375 127.5 C-105.75664417 120.84040667 -100.97371678 116.31452553 -95.4375 112.5 C-89.00662546 109.26298261 -80.89038124 109.37610985 -73.9921875 111.1171875 C-67.88512249 113.82345552 -63.40264412 119.00641045 -60.171875 124.75 C-59.33966007 127.86637931 -59.77764571 130.18174507 -60.28417969 133.32641602 C-61.1544801 140.31859274 -60.02337999 145.27279157 -55.9765625 151.09375 C-49.26373248 159.2765902 -42.66811834 165.54547461 -31.875 166.98046875 C-25.02898384 167.41321806 -18.25942182 167.1830793 -11.4375 166.5 C-11.45562744 165.91412109 -11.47375488 165.32824219 -11.49243164 164.72460938 C-11.68814325 153.81844042 -7.97767632 145.39852133 -0.4375 137.5 C6.50305702 130.87432647 14.48676222 126.37176359 24.24804688 126.46069336 C25.05657104 126.46636826 25.86509521 126.47204315 26.69812012 126.47789001 C27.31336548 126.48518631 27.92861084 126.4924826 28.5625 126.5 C32.29689907 94.19006227 32.29689907 94.19006227 21.89453125 64.8125 C19.61490949 62.11955809 17.19504933 59.66484865 14.625 57.25 C14.03392456 56.67245972 13.44284912 56.09491943 12.8338623 55.49987793 C6.63832596 49.65101632 1.17430433 46.03808495 -7.51551819 45.97735596 C-9.04596719 46.04261053 -10.57544261 46.14817348 -12.09959412 46.30145264 C-17.86624226 46.86838331 -21.57063072 45.65605915 -26.4375 42.5 C-28.6796875 40.53515625 -28.6796875 40.53515625 -30.3125 38.5625 C-30.86679688 37.91410156 -31.42109375 37.26570313 -31.9921875 36.59765625 C-36.47162097 30.09642443 -36.11213728 23.12859083 -35.4375 15.5 C-33.75664417 8.84040667 -28.97371678 4.31452553 -23.4375 0.5 C-16.65568202 -2.91366677 -6.96443471 -3.08620048 0 0 Z " fill="#000000" transform="translate(155.4375,17.5)"/>
<path d="M0 0 C1.93446991 -0.01062721 1.93446991 -0.01062721 3.90802002 -0.02146912 C5.33013951 -0.01917544 6.75225867 -0.01666576 8.17437744 -0.01396179 C9.67773695 -0.01831088 11.18109424 -0.02349469 12.68444824 -0.02944946 C16.76316378 -0.04283269 20.84178661 -0.04341866 24.92051983 -0.04088616 C28.3298003 -0.03981553 31.73906209 -0.04470242 35.14833856 -0.04949158 C43.19609493 -0.06058542 51.24380463 -0.06102552 59.29156494 -0.05497742 C67.58092384 -0.04894322 75.87011276 -0.06123479 84.15944266 -0.08254749 C91.28575079 -0.10019312 98.41200497 -0.10616 105.53833413 -0.10290974 C109.79024898 -0.10110073 114.0420427 -0.1036944 118.29393768 -0.11762428 C122.29622409 -0.13024552 126.29824689 -0.12821817 130.30052948 -0.11521339 C131.76418143 -0.112857 133.22785217 -0.11554849 134.69148254 -0.12383652 C143.33930233 -0.16924955 151.51055089 -0.20816715 158.88238525 4.80366516 C159.64615479 5.61770813 159.64615479 5.61770813 160.425354 6.44819641 C161.20845947 7.24290344 161.20845947 7.24290344 162.00738525 8.05366516 C168.01841347 16.31700078 168.19066493 23.26772868 168.13043213 33.2545929 C168.13585922 34.76825125 168.14298517 36.28190433 168.15167236 37.79554749 C168.16984063 41.88865556 168.16286488 45.98135838 168.15015602 50.07447314 C168.13999265 54.3690666 168.14943111 58.66362654 168.15570068 62.95822144 C168.16296819 70.16986791 168.15341382 77.38135027 168.13433838 84.5929718 C168.11257956 92.914839 168.11961731 101.23631401 168.141644 109.55817169 C168.1598335 116.71853332 168.16233877 123.87877731 168.15188932 131.03915459 C168.14567279 135.30892836 168.14476764 139.5785182 168.15803528 143.84827995 C168.16964474 147.86465557 168.16147595 151.88052887 168.13845825 155.89685059 C168.13319785 157.36533337 168.13463892 158.83385888 168.14350891 160.3023243 C168.19538862 169.76866987 167.71047604 177.38080108 161.4644165 184.81929016 C160.72965088 185.43932922 159.99488525 186.05936829 159.237854 186.69819641 C158.14343994 187.65532532 158.14343994 187.65532532 157.0269165 188.63179016 C152.2810324 191.83411002 147.7002852 192.51135157 142.0607605 192.52812195 C140.75987991 192.53665192 139.45899933 192.54518188 138.11869812 192.55397034 C136.68917834 192.55327141 135.25965866 192.5523484 133.83013916 192.55122375 C132.31515676 192.55721226 130.8001774 192.56401855 129.28520203 192.57157898 C125.17976281 192.58921244 121.07440701 192.59393321 116.96893358 192.59521055 C114.40157617 192.5966341 111.83423983 192.60090753 109.26688766 192.60620499 C100.30342008 192.62469578 91.3400119 192.6328767 82.37652588 192.63130188 C74.03198491 192.63010041 65.68770256 192.65120611 57.34322703 192.68278921 C50.16935502 192.70897046 42.9955674 192.71966842 35.821648 192.71839106 C31.54122973 192.71788201 27.26104145 192.72353354 22.98067093 192.74474716 C18.95369608 192.76416111 14.92716991 192.76423274 10.90017891 192.7497139 C9.42642496 192.74762866 7.95264269 192.75230971 6.47893715 192.76443481 C-2.94958606 192.83695527 -9.52776558 192.50301265 -16.8480835 186.11225891 C-17.47972412 185.37749329 -18.11136475 184.64272766 -18.762146 183.88569641 C-19.40925537 183.15608704 -20.05636475 182.42647766 -20.7230835 181.67475891 C-23.97938126 176.95083399 -24.63778188 172.35460738 -24.65457153 166.70860291 C-24.6631015 165.40772232 -24.67163147 164.10684174 -24.68041992 162.76654053 C-24.67972099 161.33702075 -24.67879799 159.90750107 -24.67767334 158.47798157 C-24.68366185 156.96299916 -24.69046813 155.44801981 -24.69802856 153.93304443 C-24.71566203 149.82760521 -24.72038279 145.72224942 -24.72166014 141.61677599 C-24.72308368 139.04941858 -24.72735712 136.48208224 -24.73265457 133.91473007 C-24.75114536 124.95126249 -24.75932629 115.98785431 -24.75775146 107.02436829 C-24.75655 98.67982732 -24.7776557 90.33554497 -24.80923879 81.99106944 C-24.83542004 74.81719743 -24.846118 67.64340981 -24.84484065 60.46949041 C-24.8443316 56.18907214 -24.84998313 51.90888386 -24.87119675 47.62851334 C-24.89061069 43.60153849 -24.89068233 39.57501231 -24.87616348 35.54802132 C-24.87407825 34.07426737 -24.87875929 32.6004851 -24.8908844 31.12677956 C-24.96332984 21.70800907 -24.65779224 15.0737682 -18.20355225 7.79975891 C-17.08786865 6.85229797 -17.08786865 6.85229797 -15.949646 5.88569641 C-15.20843506 5.23858704 -14.46722412 4.59147766 -13.70355225 3.92475891 C-9.2332349 0.71336736 -5.45658456 0.01000728 0 0 Z " fill="#FEB554" transform="translate(184.38714599609375,159.7393035888672)"/>
<path d="M0 0 C9.49505601 5.89015339 16.09940511 14.4141163 18.6796875 25.3046875 C19.82218595 31.71871388 19.59801242 38.18982662 19.4296875 44.6796875 C20.33203125 44.92074219 21.234375 45.16179687 22.1640625 45.41015625 C25.73232158 46.79733831 27.21918229 48.11029655 29.6796875 50.9921875 C30.34484375 51.75144531 31.01 52.51070312 31.6953125 53.29296875 C35.18251654 58.09180134 35.68557779 62.1095609 35.72021484 67.98925781 C35.72693207 68.7070491 35.73364929 69.42484039 35.74057007 70.16438293 C35.75951082 72.52893063 35.76347261 74.89319374 35.765625 77.2578125 C35.77205697 78.91062535 35.77878562 80.56343707 35.78579712 82.21624756 C35.79776101 85.67951087 35.80147899 89.14267452 35.80029297 92.60595703 C35.80009013 97.02530704 35.82735951 101.44401146 35.86183739 105.86320877 C35.88417271 109.27777999 35.88812845 112.69219765 35.88707352 116.10683441 C35.88942076 117.7349952 35.89819451 119.3631608 35.91373825 120.99124908 C35.99929257 130.8803186 35.89012947 139.27933724 29.31640625 147.23828125 C28.59066406 147.85832031 27.86492187 148.47835937 27.1171875 149.1171875 C26.39917969 149.75527344 25.68117188 150.39335937 24.94140625 151.05078125 C19.67349388 154.46714122 14.12129268 154.93342639 7.96899414 154.97021484 C7.25905807 154.97693207 6.54912201 154.98364929 5.81767273 154.99057007 C3.49165682 155.0094294 1.16593115 155.01346771 -1.16015625 155.015625 C-2.79008601 155.02206004 -4.42001462 155.02878891 -6.04994202 155.03579712 C-9.45837074 155.04773876 -12.86669833 155.05148103 -16.27514648 155.05029297 C-20.62728017 155.05008966 -24.97876176 155.0774177 -29.33074093 155.11183739 C-32.69465576 155.13414823 -36.05841448 155.13812928 -39.42239571 155.13707352 C-41.02626358 155.13942218 -42.63013623 155.14820403 -44.23393059 155.16373825 C-53.91268737 155.24873225 -61.3525031 155.23491793 -69.03125 148.53125 C-69.66289062 147.79648437 -70.29453125 147.06171875 -70.9453125 146.3046875 C-71.59242188 145.57507813 -72.23953125 144.84546875 -72.90625 144.09375 C-76.3631267 139.07884436 -76.82562568 134.22206011 -76.86083984 128.24072266 C-76.86755707 127.52117905 -76.87427429 126.80163544 -76.88119507 126.06028748 C-76.9000957 123.6963702 -76.9040951 121.332738 -76.90625 118.96875 C-76.9126831 117.31497077 -76.91941184 115.66119266 -76.92642212 114.00741577 C-76.93837478 110.54593264 -76.94210499 107.08454917 -76.94091797 103.62304688 C-76.94071481 99.202507 -76.96802198 94.78261024 -77.00246239 90.36222267 C-77.0247737 86.94769393 -77.02875423 83.53331898 -77.02769852 80.11872482 C-77.03004791 78.48973753 -77.03883396 76.86074556 -77.05436325 75.2318306 C-77.20365973 57.95554968 -77.20365973 57.95554968 -70.5703125 50.40234375 C-69.9103125 49.85449219 -69.2503125 49.30664062 -68.5703125 48.7421875 C-67.9103125 48.17628906 -67.2503125 47.61039063 -66.5703125 47.02734375 C-64.51735113 45.64400064 -62.95852926 45.20926213 -60.5703125 44.6796875 C-60.62832031 43.51953125 -60.68632812 42.359375 -60.74609375 41.1640625 C-61.21896024 27.64240175 -58.9889779 16.97558154 -49.5703125 6.6796875 C-35.91747281 -7.16635275 -17.09602669 -8.78184958 0 0 Z " fill="#010100" transform="translate(276.5703125,181.3203125)"/>
<path d="M0 0 C0.66569504 -0.00554901 1.33139008 -0.01109802 2.01725769 -0.01681519 C4.20691044 -0.02857861 6.39447797 -0.00437471 8.58398438 0.02148438 C10.11185614 0.02319649 11.63973084 0.02312877 13.16760254 0.0213623 C16.36543997 0.02301365 19.56257476 0.04167599 22.76025391 0.07324219 C26.85265379 0.1129199 30.94413402 0.11728643 35.03668976 0.10977936 C38.19037249 0.1067051 41.3438497 0.11884625 44.4974823 0.13591003 C46.00610565 0.14292529 47.5147523 0.14606636 49.02339172 0.1452179 C51.13450962 0.14702221 53.24453978 0.16845545 55.35546875 0.1953125 C57.15485901 0.20794128 57.15485901 0.20794128 58.99060059 0.2208252 C62.47938538 0.65256382 64.38053785 1.52169287 67.17773438 3.61523438 C68.60439454 6.4685547 68.3208113 8.90711711 68.33886719 12.09692383 C68.34631454 13.09480927 68.34631454 13.09480927 68.35391235 14.112854 C68.36854059 16.31808501 68.37533764 18.52324403 68.38085938 20.72851562 C68.38661104 22.26067609 68.39236878 23.79283653 68.39813232 25.32499695 C68.40864471 28.5404799 68.41448556 31.75593783 68.41796875 34.97143555 C68.42344879 39.08735328 68.44746504 43.20293941 68.4759407 47.31875324 C68.49458689 50.48523414 68.49977377 53.65163557 68.50130463 56.81816673 C68.5043281 58.33519488 68.51234636 59.85222172 68.52548981 61.36919594 C68.54258957 63.49483887 68.54066082 65.61967708 68.53417969 67.74536133 C68.53964813 69.55832451 68.53964813 69.55832451 68.54522705 71.40791321 C68.14025309 74.94235521 67.35714972 76.82342512 65.17773438 79.61523438 C61.7763977 80.74901327 59.15369216 80.75607614 55.56665039 80.77636719 C54.89964111 80.78133209 54.23263184 80.786297 53.54541016 80.79141235 C51.34080979 80.80600722 49.13628134 80.81283076 46.93164062 80.81835938 C45.39851378 80.82411214 43.86538694 80.82986986 42.33226013 80.83563232 C39.11855738 80.84613407 35.9048796 80.85198243 32.69116211 80.85546875 C28.57405421 80.86095796 24.45727627 80.88499827 20.34027195 80.9134407 C17.17383356 80.93206534 14.00747479 80.93727254 10.84098625 80.93880463 C9.32313161 80.94183107 7.80527836 80.94985938 6.28747749 80.96298981 C4.16413352 80.98005061 2.04159765 80.97817077 -0.08178711 80.97167969 C-1.28963364 80.97532532 -2.49748016 80.97897095 -3.7419281 80.98272705 C-7.10057853 80.58203089 -8.46788703 80.00404465 -10.82226562 77.61523438 C-11.95200742 74.22600898 -11.97696206 71.59405878 -12.01513672 68.02001953 C-12.02331421 67.35461655 -12.0314917 66.68921356 -12.03991699 66.00364685 C-12.06470916 63.80387258 -12.08126939 61.60416249 -12.09570312 59.40429688 C-12.1010268 58.65204205 -12.10635048 57.89978722 -12.11183548 57.12473679 C-12.13853792 53.14436615 -12.1579236 49.16402659 -12.17236328 45.18359375 C-12.18571243 41.89131955 -12.21358572 38.59966371 -12.25439453 35.30761719 C-12.30370527 31.32944295 -12.32848171 27.3518303 -12.33559036 23.37336349 C-12.34230223 21.85908246 -12.35752291 20.34481392 -12.38148117 18.83070755 C-12.41313503 16.70955411 -12.4131713 14.59056628 -12.40576172 12.46923828 C-12.41384857 11.26361237 -12.42193542 10.05798645 -12.43026733 8.81582642 C-11.08699814 1.74470044 -6.68069272 -0.01144146 0 0 Z " fill="#006CEE" transform="translate(227.822265625,239.384765625)"/>
<path d="M0 0 C0.66 0.33 1.32 0.66 2 1 C1.99631283 1.80083983 1.99262566 2.60167967 1.98882675 3.42678738 C1.90040533 22.93264058 1.83425615 42.43845367 1.79275131 61.94446468 C1.77214525 71.37751918 1.74406212 80.81043971 1.69824219 90.2434082 C1.65831445 98.46728293 1.63255297 106.69106062 1.62364602 114.91502959 C1.61844131 119.2676985 1.60624933 123.62008984 1.57707977 127.9726696 C1.54981671 132.07421729 1.54157685 136.17537454 1.54756927 140.27700424 C1.54647388 141.77776147 1.53858486 143.2785325 1.5231781 144.77921104 C1.44349398 152.9451503 1.71591021 159.82414426 6 167 C6.45761719 167.80953125 6.91523438 168.6190625 7.38671875 169.453125 C11.12212542 174.61314622 15.21533259 177.40444488 21 180 C21.74617175 180.34504263 22.4923435 180.69008526 23.26112652 181.04558372 C26.35787934 182.12471035 28.79201569 182.26133574 32.06806946 182.2784729 C33.28658096 182.28963638 34.50509247 182.30079987 35.76052856 182.31230164 C37.10247772 182.31466633 38.44442722 182.31684203 39.78637695 182.31884766 C41.20582142 182.32815029 42.62526043 182.33831946 44.04469299 182.34928894 C47.89137011 182.37656533 51.73801065 182.39173132 55.584759 182.40471697 C59.60734513 182.42035785 63.62985669 182.44714502 67.65238953 182.4727478 C75.26662791 182.51951864 82.88088035 182.55627095 90.49518889 182.58942068 C99.16507715 182.62765404 107.83489048 182.67706102 116.50471556 182.72740483 C134.33642219 182.83069947 152.16817456 182.9199679 170 183 C165.47094376 188.07803276 161.66163778 190.6806175 154.92041206 191.26861382 C150.97970313 191.39921129 147.04585976 191.41745107 143.10375977 191.40405273 C141.58862811 191.40976058 140.07350075 191.41672645 138.55838013 191.42485046 C134.45708629 191.44275116 130.35600677 191.44161936 126.25468564 191.43590808 C122.82531991 191.43281178 119.39599507 191.43891357 115.96663517 191.44494683 C107.87379946 191.45898026 99.78106934 191.45744058 91.68823242 191.44604492 C83.35104173 191.4345643 75.01417273 191.44864102 66.67702442 191.4754414 C59.50736785 191.49762225 52.33781209 191.50423042 45.16812366 191.49836498 C40.89108793 191.49499996 36.6142584 191.49738012 32.33725166 191.51461601 C28.31434698 191.53012128 24.29191767 191.52609032 20.26903152 191.50731087 C18.79689688 191.50363487 17.32472674 191.50670456 15.85262489 191.51719666 C6.43322876 191.5791805 -0.14791808 191.23594453 -7.4609375 184.8515625 C-8.09257812 184.11679687 -8.72421875 183.38203125 -9.375 182.625 C-10.02210938 181.89539063 -10.66921875 181.16578125 -11.3359375 180.4140625 C-14.59223526 175.69013757 -15.25063589 171.09391097 -15.26742554 165.44790649 C-15.27595551 164.14702591 -15.28448547 162.84614532 -15.29327393 161.50584412 C-15.292575 160.07632434 -15.29165199 158.64680466 -15.29052734 157.21728516 C-15.29651585 155.70230275 -15.30332214 154.1873234 -15.31088257 152.67234802 C-15.32851603 148.5669088 -15.3332368 144.46155301 -15.33451414 140.35607958 C-15.33593769 137.78872216 -15.34021112 135.22138583 -15.34550858 132.65403366 C-15.36399937 123.69056608 -15.37218029 114.7271579 -15.37060547 105.76367188 C-15.369404 97.4191309 -15.3905097 89.07484856 -15.4220928 80.73037302 C-15.44827405 73.55650102 -15.45897201 66.3827134 -15.45769465 59.208794 C-15.4571856 54.92837573 -15.46283713 50.64818745 -15.48405075 46.36781693 C-15.5034647 42.34084208 -15.50353633 38.3143159 -15.48901749 34.28732491 C-15.48693225 32.81357096 -15.4916133 31.33978869 -15.5037384 29.86608315 C-15.57628834 20.43372681 -15.31387958 13.70404275 -8.7109375 6.50390625 C-7.94007813 5.86324219 -7.16921875 5.22257813 -6.375 4.5625 C-5.59898437 3.90378906 -4.82296875 3.24507812 -4.0234375 2.56640625 C-2 1 -2 1 0 0 Z " fill="#FEA632" transform="translate(175,161)"/>
<path d="M0 0 C5.87564741 2.99047287 9.87824799 7.09224657 13.1875 12.75 C15.11496759 19.43944633 15.14244287 26.02555712 12.359375 32.484375 C8.66792785 38.98340168 5.41405318 42.04948227 -1.75 44.4375 C-1.75 50.3775 -1.75 56.3175 -1.75 62.4375 C-7.03 62.4375 -12.31 62.4375 -17.75 62.4375 C-17.75 56.4975 -17.75 50.5575 -17.75 44.4375 C-19.07 44.1075 -20.39 43.7775 -21.75 43.4375 C-27.34824139 39.6652475 -31.93733673 35.04640273 -33.75 28.4375 C-34.9515897 20.16369664 -33.76956378 13.21873761 -28.75 6.4375 C-20.74519947 -1.34135858 -10.6403037 -4.24518966 0 0 Z " fill="#000102" transform="translate(265.75,249.5625)"/>
<path d="M0 0 C6.55377411 3.43524963 10.69615183 9.27019619 13.1015625 16.1015625 C13.1015625 20.7215625 13.1015625 25.3415625 13.1015625 30.1015625 C-2.7384375 30.1015625 -18.5784375 30.1015625 -34.8984375 30.1015625 C-34.8984375 12.28066698 -34.8984375 12.28066698 -28.8046875 5.9140625 C-20.13655821 -2.1761915 -11.3104223 -4.27637875 0 0 Z " fill="#FCB454" transform="translate(266.8984375,193.8984375)"/>
<path d="M0 0 C0.00364563 0.75088898 0.00729126 1.50177795 0.01104736 2.27542114 C0.04898281 9.3670046 0.10589794 16.45812601 0.18390274 23.54936409 C0.22333889 27.19471102 0.25554588 30.83981781 0.27099609 34.48535156 C0.28618879 38.00643076 0.32067882 41.52684959 0.36830902 45.04763412 C0.39027132 47.03825582 0.39247149 49.02906394 0.39434814 51.01980591 C0.52805131 59.2975887 1.36631799 63.43119185 7.37939453 69.33691406 C13.08622415 71.95828448 18.72249366 71.60352355 24.9296875 71.609375 C26.28876708 71.62436957 27.64782852 71.6410994 29.00686646 71.65948486 C32.56767653 71.7030285 36.12824086 71.72312814 39.68927002 71.73822021 C43.32945204 71.75783863 46.96937047 71.79980309 50.609375 71.83984375 C57.73948265 71.91500444 64.86957082 71.96538116 72 72 C70.54882057 77.5628545 70.54882057 77.5628545 68.29528809 79.35783386 C65.22801393 80.21598305 62.46278574 80.26246929 59.27539062 80.2746582 C58.60823532 80.27976913 57.94108002 80.28488007 57.25370789 80.29014587 C55.05446332 80.30401486 52.85553302 80.30308744 50.65625 80.30078125 C49.12455123 80.30466919 47.59285353 80.30900407 46.06115723 80.31376648 C42.85339866 80.32122252 39.64575017 80.32094156 36.43798828 80.31567383 C32.32872581 80.30987481 28.21991344 80.32682323 24.1107254 80.3500185 C20.94856129 80.36475313 17.78650571 80.36562802 14.62431335 80.36250877 C13.10925911 80.36302196 11.59419878 80.36825916 10.07917786 80.37832069 C7.96069084 80.39066535 5.84308245 80.38390671 3.72460938 80.37231445 C2.51977905 80.37294388 1.31494873 80.3735733 0.0736084 80.3742218 C-3.27742539 79.96622256 -4.64865108 79.38287531 -7 77 C-8.1297418 73.6107746 -8.15469643 70.97882441 -8.19287109 67.40478516 C-8.20104858 66.73938217 -8.20922607 66.07397919 -8.21765137 65.38841248 C-8.24244353 63.18863821 -8.25900377 60.98892812 -8.2734375 58.7890625 C-8.27876118 58.03680767 -8.28408485 57.28455284 -8.28956985 56.50950241 C-8.31627229 52.52913177 -8.33565797 48.54879221 -8.35009766 44.56835938 C-8.3634468 41.27608517 -8.3913201 37.98442934 -8.43212891 34.69238281 C-8.48143965 30.71420858 -8.50621609 26.73659592 -8.51332474 22.75812912 C-8.5200366 21.24384808 -8.53525729 19.72957955 -8.55921555 18.21547318 C-8.59086941 16.09431974 -8.59090568 13.97533191 -8.58349609 11.85400391 C-8.59158295 10.64837799 -8.5996698 9.44275208 -8.60800171 8.20059204 C-7.6789545 3.309979 -5.16567878 0 0 0 Z " fill="#005DCD" transform="translate(224,240)"/>
<path d="M0 0 C5.28 0 10.56 0 16 0 C16 5.28 16 10.56 16 16 C10.72 16 5.44 16 0 16 C0 10.72 0 5.44 0 0 Z " fill="#000000" transform="translate(216,432)"/>
<path d="M0 0 C5.28 0 10.56 0 16 0 C16 5.28 16 10.56 16 16 C10.72 16 5.44 16 0 16 C0 10.72 0 5.44 0 0 Z " fill="#000000" transform="translate(280,408)"/>
<path d="M0 0 C5.28 0 10.56 0 16 0 C16 5.28 16 10.56 16 16 C10.72 16 5.44 16 0 16 C0 10.72 0 5.44 0 0 Z " fill="#000000" transform="translate(368,360)"/>
<path d="M0 0 C5.28 0 10.56 0 16 0 C16 5.28 16 10.56 16 16 C10.72 16 5.44 16 0 16 C0 10.72 0 5.44 0 0 Z " fill="#000000" transform="translate(128,360)"/>
<path d="M0 0 C5.28 0 10.56 0 16 0 C16 5.28 16 10.56 16 16 C10.72 16 5.44 16 0 16 C0 10.72 0 5.44 0 0 Z " fill="#000000" transform="translate(424,280)"/>
<path d="M0 0 C5.28 0 10.56 0 16 0 C16 5.28 16 10.56 16 16 C10.72 16 5.44 16 0 16 C0 10.72 0 5.44 0 0 Z " fill="#000000" transform="translate(88,248)"/>
<path d="M0 0 C5.28 0 10.56 0 16 0 C16 5.28 16 10.56 16 16 C10.72 16 5.44 16 0 16 C0 10.72 0 5.44 0 0 Z " fill="#000000" transform="translate(408,216)"/>
<path d="M0 0 C5.28 0 10.56 0 16 0 C16 5.28 16 10.56 16 16 C10.72 16 5.44 16 0 16 C0 10.72 0 5.44 0 0 Z " fill="#000000" transform="translate(368,136)"/>
<path d="M0 0 C5.28 0 10.56 0 16 0 C16 5.28 16 10.56 16 16 C10.72 16 5.44 16 0 16 C0 10.72 0 5.44 0 0 Z " fill="#000000" transform="translate(128,136)"/>
<path d="M0 0 C5.28 0 10.56 0 16 0 C16 5.28 16 10.56 16 16 C10.72 16 5.44 16 0 16 C0 10.72 0 5.44 0 0 Z " fill="#000000" transform="translate(280,88)"/>
<path d="M0 0 C5.28 0 10.56 0 16 0 C16 5.28 16 10.56 16 16 C10.72 16 5.44 16 0 16 C0 10.72 0 5.44 0 0 Z " fill="#000000" transform="translate(216,88)"/>
<path d="M0 0 C4.0743356 0.84881992 5.54405875 2.30225596 8 5.625 C8.625 8.625 8.625 8.625 8 11.625 C5.54405875 14.94774404 4.0743356 16.40118008 0 17.25 C-4.0743356 16.40118008 -5.54405875 14.94774404 -8 11.625 C-8.625 8.625 -8.625 8.625 -8 5.625 C-5.54405875 2.30225596 -4.0743356 0.84881992 0 0 Z " fill="#78CC3B" transform="translate(320,463.375)"/>
<path d="M0 0 C4.0743356 0.84881992 5.54405875 2.30225596 8 5.625 C8.625 8.625 8.625 8.625 8 11.625 C5.54405875 14.94774404 4.0743356 16.40118008 0 17.25 C-4.0743356 16.40118008 -5.54405875 14.94774404 -8 11.625 C-8.625 8.625 -8.625 8.625 -8 5.625 C-5.54405875 2.30225596 -4.0743356 0.84881992 0 0 Z " fill="#78CC3B" transform="translate(392,415.375)"/>
<path d="M0 0 C4.0743356 0.84881992 5.54405875 2.30225596 8 5.625 C8.625 8.625 8.625 8.625 8 11.625 C5.54405875 14.94774404 4.0743356 16.40118008 0 17.25 C-4.0743356 16.40118008 -5.54405875 14.94774404 -8 11.625 C-8.625 8.625 -8.625 8.625 -8 5.625 C-5.54405875 2.30225596 -4.0743356 0.84881992 0 0 Z " fill="#E6E7E7" transform="translate(256,263.375)"/>
<path d="M0 0 C4.0743356 0.84881992 5.54405875 2.30225596 8 5.625 C8.625 8.625 8.625 8.625 8 11.625 C5.54405875 14.94774404 4.0743356 16.40118008 0 17.25 C-4.0743356 16.40118008 -5.54405875 14.94774404 -8 11.625 C-8.625 8.625 -8.625 8.625 -8 5.625 C-5.54405875 2.30225596 -4.0743356 0.84881992 0 0 Z " fill="#78CC3B" transform="translate(472,215.375)"/>
<path d="M0 0 C4.0743356 0.84881992 5.54405875 2.30225596 8 5.625 C8.625 8.625 8.625 8.625 8 11.625 C5.54405875 14.94774404 4.0743356 16.40118008 0 17.25 C-4.0743356 16.40118008 -5.54405875 14.94774404 -8 11.625 C-8.625 8.625 -8.625 8.625 -8 5.625 C-5.54405875 2.30225596 -4.0743356 0.84881992 0 0 Z " fill="#78CC3B" transform="translate(440,143.375)"/>
<path d="M0 0 C4.0743356 0.84881992 5.54405875 2.30225596 8 5.625 C8.625 8.625 8.625 8.625 8 11.625 C5.54405875 14.94774404 4.0743356 16.40118008 0 17.25 C-4.0743356 16.40118008 -5.54405875 14.94774404 -8 11.625 C-8.625 8.625 -8.625 8.625 -8 5.625 C-5.54405875 2.30225596 -4.0743356 0.84881992 0 0 Z " fill="#78CC3B" transform="translate(256,55.375)"/>
<path d="M0 0 C4.0743356 0.84881992 5.54405875 2.30225596 8 5.625 C8.625 8.625 8.625 8.625 8 11.625 C5.54405875 14.94774404 4.0743356 16.40118008 0 17.25 C-4.0743356 16.40118008 -5.54405875 14.94774404 -8 11.625 C-8.625 8.625 -8.625 8.625 -8 5.625 C-5.54405875 2.30225596 -4.0743356 0.84881992 0 0 Z " fill="#78CC3B" transform="translate(384,47.375)"/>
<path d="M0 0 C2.66589042 0.54323805 3.75768995 0.96351964 5.875 2.75 C7.21538506 5.84964046 7.42167869 7.71409302 6.875 11.0625 C4.41905875 14.38524404 2.9493356 15.83868008 -1.125 16.6875 C-5.1993356 15.83868008 -6.66905875 14.38524404 -9.125 11.0625 C-9.75 8.0625 -9.75 8.0625 -9.125 5.0625 C-6.50620524 1.2161452 -4.62486834 -0.35838463 0 0 Z " fill="#78CC3B" transform="translate(65.125,375.9375)"/>
<path d="M0 0 C2.66589042 0.54323805 3.75768995 0.96351964 5.875 2.75 C7.21538506 5.84964046 7.42167869 7.71409302 6.875 11.0625 C4.41905875 14.38524404 2.9493356 15.83868008 -1.125 16.6875 C-5.1993356 15.83868008 -6.66905875 14.38524404 -9.125 11.0625 C-9.75 8.0625 -9.75 8.0625 -9.125 5.0625 C-6.50620524 1.2161452 -4.62486834 -0.35838463 0 0 Z " fill="#78CC3B" transform="translate(73.125,143.9375)"/>
<path d="M0 0 C2.66589042 0.54323805 3.75768995 0.96351964 5.875 2.75 C7.21538506 5.84964046 7.42167869 7.71409302 6.875 11.0625 C4.41905875 14.38524404 2.9493356 15.83868008 -1.125 16.6875 C-5.1993356 15.83868008 -6.66905875 14.38524404 -9.125 11.0625 C-9.75 8.0625 -9.75 8.0625 -9.125 5.0625 C-6.50620524 1.2161452 -4.62486834 -0.35838463 0 0 Z " fill="#78CC3B" transform="translate(145.125,31.9375)"/>
<path d="M0 0 C1.8046875 0.640625 1.8046875 0.640625 3.8046875 2.328125 C5.14507256 5.42776546 5.35136619 7.29221802 4.8046875 10.640625 C2.31384502 14.01058835 0.91879885 15.45872927 -3.2578125 16.140625 C-6.62408491 15.56764246 -7.98534714 15.2598432 -10.1953125 12.640625 C-11.16586381 9.90651093 -11.50945273 7.52959322 -11.1953125 4.640625 C-8.1181485 -0.22327939 -5.38557002 -1.09743691 0 0 Z " fill="#78CD3B" transform="translate(147.1953125,464.359375)"/>
<path d="M0 0 C1.8046875 0.640625 1.8046875 0.640625 3.8046875 2.328125 C5.14507256 5.42776546 5.35136619 7.29221802 4.8046875 10.640625 C2.31384502 14.01058835 0.91879885 15.45872927 -3.2578125 16.140625 C-6.62408491 15.56764246 -7.98534714 15.2598432 -10.1953125 12.640625 C-11.16586381 9.90651093 -11.50945273 7.52959322 -11.1953125 4.640625 C-8.1181485 -0.22327939 -5.38557002 -1.09743691 0 0 Z " fill="#78CD3B" transform="translate(475.1953125,344.359375)"/>
<path d="M0 0 C1.8046875 0.640625 1.8046875 0.640625 3.8046875 2.328125 C5.14507256 5.42776546 5.35136619 7.29221802 4.8046875 10.640625 C2.31384502 14.01058835 0.91879885 15.45872927 -3.2578125 16.140625 C-6.62408491 15.56764246 -7.98534714 15.2598432 -10.1953125 12.640625 C-11.16586381 9.90651093 -11.50945273 7.52959322 -11.1953125 4.640625 C-8.1181485 -0.22327939 -5.38557002 -1.09743691 0 0 Z " fill="#78CD3B" transform="translate(43.1953125,264.359375)"/>
</svg>
